<svg width="30" height="30" viewBox="0 0 30 30" fill="none" xmlns="http://www.w3.org/2000/svg">
<circle cx="15" cy="14" r="9.25" stroke="white" stroke-width="1.5"/>
<line x1="6" y1="12.25" x2="24" y2="12.25" stroke="white" stroke-width="1.5"/>
<line x1="6" y1="16.25" x2="24" y2="16.25" stroke="white" stroke-width="1.5"/>
<path d="M18.25 14C18.25 16.6904 17.8124 19.0916 17.1321 20.7925C16.7911 21.6451 16.4038 22.2846 16.0121 22.6988C15.6219 23.1114 15.2796 23.25 15 23.25C14.7204 23.25 14.3781 23.1114 13.9879 22.6988C13.5962 22.2846 13.2089 21.6451 12.8679 20.7925C12.1876 19.0916 11.75 16.6904 11.75 14C11.75 11.3096 12.1876 8.90837 12.8679 7.20748C13.2089 6.35495 13.5962 5.71536 13.9879 5.30118C14.3781 4.88858 14.7204 4.75 15 4.75C15.2796 4.75 15.6219 4.88858 16.0121 5.30118C16.4038 5.71536 16.7911 6.35495 17.1321 7.20748C17.8124 8.90837 18.25 11.3096 18.25 14Z" stroke="white" stroke-width="1.5"/>
</svg>
